<?xml version="1.0" encoding="UTF-8"?>
<svg width="117px" height="13px" viewBox="0 0 117 13" version="1.1" xmlns="http://www.w3.org/2000/svg" xmlns:xlink="http://www.w3.org/1999/xlink">
    <!-- Generator: Sketch 42 (36781) - http://www.bohemiancoding.com/sketch -->
    <title>DREAMSHARE</title>
    <desc>Created with Sketch.</desc>
    <defs></defs>
    <g id="Page-1" stroke="none" stroke-width="1" fill="none" fill-rule="evenodd">
        <g id="Dreamshare_desktop" transform="translate(-250.000000, -2320.000000)" fill="#000000">
            <g id="Footer" transform="translate(0.000000, 2278.000000)">
                <path d="M259.016,44.28 C260.093339,45.2560049 260.632,46.6133246 260.632,48.352 C260.632,50.0906754 260.109339,51.4666616 259.064,52.48 C258.018661,53.4933384 256.418677,54 254.264,54 L250.552,54 L250.552,42.816 L254.392,42.816 C256.397343,42.816 257.938661,43.3039951 259.016,44.28 Z M258.728,48.4 C258.728,45.8399872 257.261348,44.56 254.328,44.56 L252.44,44.56 L252.44,52.224 L254.536,52.224 C255.890673,52.224 256.927996,51.9013366 257.648,51.256 C258.368004,50.6106634 258.728,49.658673 258.728,48.4 Z M271.992,46.448 C271.992,48.2933426 271.186675,49.4559976 269.576,49.936 L272.504,54 L270.104,54 L267.432,50.24 L264.952,50.24 L264.952,54 L263.064,54 L263.064,42.816 L267.224,42.816 C268.930675,42.816 270.151996,43.1039971 270.888,43.68 C271.624004,44.2560029 271.992,45.1786603 271.992,46.448 Z M269.48,48.032 C269.864002,47.7013317 270.056,47.1706703 270.056,46.44 C270.056,45.7093297 269.858669,45.2080014 269.464,44.936 C269.069331,44.6639986 268.365338,44.528 267.352,44.528 L264.952,44.528 L264.952,48.528 L267.304,48.528 C268.370672,48.528 269.095998,48.3626683 269.48,48.032 Z M282.568,42.816 L282.568,44.592 L276.6,44.592 L276.6,47.552 L281.96,47.552 L281.96,49.232 L276.6,49.232 L276.6,52.224 L282.76,52.224 L282.76,54 L274.712,54 L274.712,42.816 L282.568,42.816 Z M286.76,51.456 L285.64,54 L283.624,54 L288.552,42.816 L290.568,42.816 L295.496,54 L293.48,54 L292.36,51.456 L286.76,51.456 Z M291.592,49.712 L289.56,45.104 L287.528,49.712 L291.592,49.712 Z M298.936,54 L297.048,54 L297.048,42.816 L299.992,42.816 L303.368,49.84 L306.744,42.816 L309.672,42.816 L309.672,54 L307.784,54 L307.784,45.264 L303.88,53.024 L302.824,53.024 L298.936,45.264 L298.936,54 Z M314.808,44.624 C314.455998,44.8480011 314.28,45.1866644 314.28,45.64 C314.28,46.0933356 314.455998,46.4399988 314.808,46.68 C315.160002,46.9200012 315.909328,47.1786653 317.056,47.456 C318.202672,47.7333347 319.066664,48.1226642 319.648,48.624 C320.229336,49.1253358 320.52,49.8639951 320.52,50.84 C320.52,51.8160049 320.152004,52.607997 319.416,53.216 C318.679996,53.824003 317.714673,54.128 316.52,54.128 C314.770658,54.128 313.218673,53.5253394 311.864,52.32 L313.048,50.896 C314.178672,51.8773382 315.351994,52.368 316.568,52.368 C317.176003,52.368 317.658665,52.2373346 318.016,51.976 C318.373335,51.7146654 318.552,51.3680022 318.552,50.936 C318.552,50.5039978 318.384002,50.1680012 318.048,49.928 C317.711998,49.6879988 317.133337,49.4693343 316.312,49.272 C315.490663,49.0746657 314.866669,48.8933342 314.44,48.728 C314.013331,48.5626658 313.634668,48.346668 313.304,48.08 C312.642663,47.5786642 312.312,46.8106718 312.312,45.776 C312.312,44.7413282 312.687996,43.9440028 313.44,43.384 C314.192004,42.8239972 315.122661,42.544 316.232,42.544 C316.94667,42.544 317.655996,42.6613322 318.36,42.896 C319.064004,43.1306678 319.671997,43.4613312 320.184,43.888 L319.176,45.312 C318.845332,45.0133318 318.397336,44.768001 317.832,44.576 C317.266664,44.383999 316.709336,44.288 316.16,44.288 C315.610664,44.288 315.160002,44.3999989 314.808,44.624 Z M322.856,54 L322.856,42.816 L324.744,42.816 L324.744,47.664 L330.296,47.664 L330.296,42.816 L332.184,42.816 L332.184,54 L330.296,54 L330.296,49.424 L324.744,49.424 L324.744,54 L322.856,54 Z M336.872,51.456 L335.752,54 L333.736,54 L338.664,42.816 L340.68,42.816 L345.608,54 L343.592,54 L342.472,51.456 L336.872,51.456 Z M341.704,49.712 L339.672,45.104 L337.64,49.712 L341.704,49.712 Z M356.088,46.448 C356.088,48.2933426 355.282675,49.4559976 353.672,49.936 L356.6,54 L354.2,54 L351.528,50.24 L349.048,50.24 L349.048,54 L347.16,54 L347.16,42.816 L351.32,42.816 C353.026675,42.816 354.247996,43.1039971 354.984,43.68 C355.720004,44.2560029 356.088,45.1786603 356.088,46.448 Z M353.576,48.032 C353.960002,47.7013317 354.152,47.1706703 354.152,46.44 C354.152,45.7093297 353.954669,45.2080014 353.56,44.936 C353.165331,44.6639986 352.461338,44.528 351.448,44.528 L349.048,44.528 L349.048,48.528 L351.4,48.528 C352.466672,48.528 353.191998,48.3626683 353.576,48.032 Z M366.664,42.816 L366.664,44.592 L360.696,44.592 L360.696,47.552 L366.056,47.552 L366.056,49.232 L360.696,49.232 L360.696,52.224 L366.856,52.224 L366.856,54 L358.808,54 L358.808,42.816 L366.664,42.816 Z" id="DREAMSHARE"></path>
            </g>
        </g>
    </g>
</svg>